<?xml version="1.0"?>
<svg xmlns="http://www.w3.org/2000/svg" xmlns:xlink="http://www.w3.org/1999/xlink" xmlns:svgjs="http://svgjs.com/svgjs" version="1.1" width="512" height="512" x="0" y="0" viewBox="0 0 32 32" style="enable-background:new 0 0 512 512" xml:space="preserve" class=""><g transform="matrix(1.4999999999999998,0,0,1.4999999999999998,-7.9999999999999964,-7.9999999999999964)"><path xmlns="http://www.w3.org/2000/svg" d="m26 32h-20c-3.314 0-6-2.686-6-6v-20c0-3.314 2.686-6 6-6h20c3.314 0 6 2.686 6 6v20c0 3.314-2.686 6-6 6z" fill="#0f0f0f" data-original="#ffe6e2" style="" class=""/><path xmlns="http://www.w3.org/2000/svg" d="m16 24c4.416 0 8-3.584 8-8s-3.584-8-8-8-8 3.584-8 8 3.584 8 8 8zm3.248-4.229c-.538.001-2.238-1.885-7.013-.906-.126.032-.29.084-.384.084-.61 0-.727-.912-.071-1.052 2.642-.584 5.342-.532 7.645.845.549.351.316 1.029-.177 1.029zm.869-2.116c-.075-.02-.053.046-.398-.136-2.016-1.193-5.022-1.674-7.697-.948-.155.042-.239.084-.384.084-.714 0-.904-1.074-.125-1.293 3.144-.883 6.516-.368 8.864 1.029.262.155.365.355.365.635-.003.348-.274.629-.625.629zm-9.085-4.99c3.015-.883 7.579-.604 10.416 1.052.728.419.441 1.48-.332 1.48l-.001-.001c-.168 0-.271-.042-.416-.126-2.296-1.371-6.403-1.7-9.061-.958-.116.032-.262.084-.416.084-.426 0-.751-.332-.751-.761 0-.438.271-.686.561-.77z" fill="#ffffff" data-original="#fc573b" style="" class=""/></g></svg>
